#N canvas 124 66 1153 653 10;
#X obj 32 464 dac~ 1 2;
#X obj 36 50 tgl 15 0 empty empty empty 17 7 0 10 -262144 -1 -1 1 1
;
#X obj 605 411 *~ 0.25;
#X obj 33 418 *~ 0.25;
#X obj 34 373 *~ 0.5;
#X floatatom 35 152 5 0 0 0 - - -, f 5;
#X obj 82 269 * 2;
#X obj 34 293 osc~;
#X obj 80 294 osc~;
#X obj 127 295 osc~;
#X obj 185 294 osc~;
#X obj 238 294 osc~;
#X obj 129 269 * 3;
#X obj 184 268 * 4;
#X obj 238 263 * 5;
#X obj 80 333 *~ 0.5;
#X obj 131 333 *~ 0.2;
#X obj 186 335 *~ 0.1;
#X obj 239 335 *~ 0.05;
#X obj 331 374 *~ 0.5;
#X obj 379 270 * 2;
#X obj 331 294 osc~;
#X obj 377 295 osc~;
#X obj 424 296 osc~;
#X obj 482 295 osc~;
#X obj 535 295 osc~;
#X obj 426 270 * 3;
#X obj 481 269 * 4;
#X obj 535 264 * 5;
#X obj 377 334 *~ 0.5;
#X obj 428 334 *~ 0.2;
#X obj 483 336 *~ 0.1;
#X obj 536 336 *~ 0.05;
#X floatatom 330 229 5 0 0 0 - - -, f 5;
#X obj 278 187 * 1.16667;
#X obj 606 365 *~ 0.5;
#X obj 654 261 * 2;
#X obj 606 285 osc~;
#X obj 652 286 osc~;
#X obj 699 287 osc~;
#X obj 757 286 osc~;
#X obj 810 286 osc~;
#X obj 701 261 * 3;
#X obj 756 260 * 4;
#X obj 810 255 * 5;
#X obj 652 325 *~ 0.5;
#X obj 703 325 *~ 0.2;
#X obj 758 327 *~ 0.1;
#X obj 811 327 *~ 0.05;
#X floatatom 605 220 5 0 0 0 - - -, f 5;
#X obj 604 181 * 1.5;
#X obj 867 357 *~ 0.5;
#X obj 915 253 * 2;
#X obj 867 277 osc~;
#X obj 913 278 osc~;
#X obj 960 279 osc~;
#X obj 1018 278 osc~;
#X obj 1071 278 osc~;
#X obj 962 253 * 3;
#X obj 1017 252 * 4;
#X obj 1071 247 * 5;
#X obj 913 317 *~ 0.5;
#X obj 964 317 *~ 0.2;
#X obj 1019 319 *~ 0.1;
#X obj 1072 319 *~ 0.05;
#X floatatom 866 212 5 0 0 0 - - -, f 5;
#X obj 862 182 * 1.75;
#X obj 36 74 metro 20000;
#X obj 36 99 random 40;
#X obj 36 127 * 5;
#X connect 1 0 67 0;
#X connect 2 0 0 1;
#X connect 3 0 0 0;
#X connect 4 0 3 0;
#X connect 5 0 7 0;
#X connect 5 0 6 0;
#X connect 5 0 12 0;
#X connect 5 0 13 0;
#X connect 5 0 14 0;
#X connect 5 0 34 0;
#X connect 5 0 50 0;
#X connect 5 0 66 0;
#X connect 6 0 8 0;
#X connect 7 0 4 0;
#X connect 8 0 15 0;
#X connect 9 0 16 0;
#X connect 10 0 17 0;
#X connect 11 0 18 0;
#X connect 12 0 9 0;
#X connect 13 0 10 0;
#X connect 14 0 11 0;
#X connect 15 0 4 0;
#X connect 16 0 4 0;
#X connect 17 0 4 0;
#X connect 18 0 4 0;
#X connect 19 0 3 0;
#X connect 20 0 22 0;
#X connect 21 0 19 0;
#X connect 22 0 29 0;
#X connect 23 0 30 0;
#X connect 24 0 31 0;
#X connect 25 0 32 0;
#X connect 26 0 23 0;
#X connect 27 0 24 0;
#X connect 28 0 25 0;
#X connect 29 0 19 0;
#X connect 30 0 19 0;
#X connect 31 0 19 0;
#X connect 32 0 19 0;
#X connect 33 0 21 0;
#X connect 33 0 20 0;
#X connect 33 0 26 0;
#X connect 33 0 27 0;
#X connect 33 0 28 0;
#X connect 34 0 33 0;
#X connect 35 0 2 0;
#X connect 36 0 38 0;
#X connect 37 0 35 0;
#X connect 38 0 45 0;
#X connect 39 0 46 0;
#X connect 40 0 47 0;
#X connect 41 0 48 0;
#X connect 42 0 39 0;
#X connect 43 0 40 0;
#X connect 44 0 41 0;
#X connect 45 0 35 0;
#X connect 46 0 35 0;
#X connect 47 0 35 0;
#X connect 48 0 35 0;
#X connect 49 0 37 0;
#X connect 49 0 36 0;
#X connect 49 0 42 0;
#X connect 49 0 43 0;
#X connect 49 0 44 0;
#X connect 50 0 49 0;
#X connect 51 0 2 0;
#X connect 52 0 54 0;
#X connect 53 0 51 0;
#X connect 54 0 61 0;
#X connect 55 0 62 0;
#X connect 56 0 63 0;
#X connect 57 0 64 0;
#X connect 58 0 55 0;
#X connect 59 0 56 0;
#X connect 60 0 57 0;
#X connect 61 0 51 0;
#X connect 62 0 51 0;
#X connect 63 0 51 0;
#X connect 64 0 51 0;
#X connect 65 0 53 0;
#X connect 65 0 52 0;
#X connect 65 0 58 0;
#X connect 65 0 59 0;
#X connect 65 0 60 0;
#X connect 66 0 65 0;
#X connect 67 0 68 0;
#X connect 68 0 69 0;
#X connect 69 0 5 0;
